<?xml version="1.0" encoding="utf-8"?>
<!DOCTYPE svg PUBLIC "-//W3C//DTD SVG 1.1//EN" "http://www.w3.org/Graphics/SVG/1.1/DTD/svg11.dtd">
<svg version="1.1" id="icon-03" xmlns="http://www.w3.org/2000/svg" xmlns:xlink="http://www.w3.org/1999/xlink" x="0px" y="0px"
	 width="150px" height="150px" viewBox="0 0 150 150" enable-background="new 0 0 150 150" xml:space="preserve">
<circle id="dot" fill="#9092C0" stroke="#9092C0" stroke-miterlimit="10" cx="57.5" cy="142.5" r="1.5"/>
<g id="semi-circle">
	<g>
		<path fill="none" stroke="#9092C0" stroke-miterlimit="10" d="M57.99,142.959c15.086,2.121,29.724-0.736,42.253-7.32
			c19.267-10.123,33.548-29.059,36.808-52.256c5.381-38.284-21.293-73.681-59.576-79.061c-38.284-5.38-64.383,23.583-65.216,29.51"
			/>
	</g>
</g>
<g id="icon">
	<path fill="#D0D2DF" d="M53.674,48.077c-0.471,0-0.852,0.377-0.852,0.842v52.173c0,0.465,0.381,0.842,0.852,0.842h40.641
		c0.472,0,0.853-0.377,0.854-0.842V63.097c0.05-0.311-0.078-0.622-0.333-0.81L80.771,48.399c-0.166-0.213-0.422-0.337-0.692-0.332
		C80.035,48.062,53.674,48.077,53.674,48.077z M54.526,49.754h24.712v13.204c0,0.465,0.383,0.842,0.854,0.842h13.371v36.443H54.526
		V49.754L54.526,49.754z M80.943,50.943l11.313,11.173H80.943V50.943z M75.928,70.744c-0.371,0.015-0.691,0.266-0.789,0.621
		l-3.913,13.529c-0.148,0.44,0.093,0.918,0.539,1.064c0.446,0.146,0.929-0.092,1.077-0.533c0.009-0.023,0.016-0.047,0.021-0.07
		l3.915-13.529c0.134-0.446-0.123-0.915-0.574-1.048C76.113,70.752,76.021,70.74,75.928,70.744L75.928,70.744z M69.485,71.707
		h-0.007c-0.222,0.007-0.432,0.099-0.586,0.257l-5.867,5.796c-0.332,0.329-0.332,0.861,0,1.19l5.867,5.8
		c0.338,0.325,0.878,0.318,1.207-0.016c0.322-0.326,0.322-0.848,0.002-1.176l-5.269-5.203l5.269-5.203
		c0.34-0.321,0.352-0.854,0.026-1.189c-0.167-0.173-0.401-0.268-0.643-0.26L69.485,71.707L69.485,71.707z M78.497,71.707
		c-0.472-0.002-0.853,0.374-0.854,0.839c-0.002,0.229,0.092,0.448,0.26,0.607l5.269,5.203l-5.269,5.203
		c-0.338,0.325-0.346,0.859-0.016,1.192c0.328,0.333,0.869,0.34,1.206,0.015c0.005-0.004,0.011-0.011,0.017-0.017l5.867-5.8
		c0.332-0.329,0.332-0.861,0-1.19l-5.867-5.796C78.949,71.8,78.729,71.707,78.497,71.707z"/>
</g>
</svg>
