<?xml version="1.0" encoding="utf-8"?>
<!DOCTYPE svg PUBLIC "-//W3C//DTD SVG 1.1//EN" "http://www.w3.org/Graphics/SVG/1.1/DTD/svg11.dtd">
<svg version="1.1" id="icon-02" xmlns="http://www.w3.org/2000/svg" xmlns:xlink="http://www.w3.org/1999/xlink" x="0px" y="0px"
	 width="150px" height="150px" viewBox="0 0 150 150" enable-background="new 0 0 150 150" xml:space="preserve">
<circle id="dot" fill-rule="evenodd" clip-rule="evenodd" fill="#DF4A6A" stroke="#DF4A6A" stroke-miterlimit="10" cx="57.5" cy="142.5" r="1.5"/>
<g id="semi-circle">
	<g>
		<path fill="none" stroke="#DF4A6A" stroke-miterlimit="10" d="M57.99,142.959c15.086,2.121,29.724-0.736,42.253-7.32
			c19.267-10.124,33.548-29.059,36.808-52.256c5.381-38.284-21.293-73.681-59.576-79.061c-38.284-5.38-64.383,23.583-65.216,29.51"
			/>
	</g>
</g>
<g id="icon">
	<path fill-rule="evenodd" clip-rule="evenodd" fill="#DED1D1" d="M98.041,77.469c0,6.435-5.345,11.582-11.661,11.582
		c-1.133,0-2.429-0.161-3.4-0.483c1.943-3.378,3.077-7.238,3.077-11.42c0-1.931-0.324-3.7-0.81-5.63l-0.811,1.126
		c-0.162,0.16-0.324,0.321-0.485,0.321c0.323,1.448,0.485,2.896,0.485,4.343c0,3.861-1.133,7.561-3.076,10.777
		c-4.049-1.93-6.803-5.951-6.803-10.616c0-0.804,0-1.608,0.162-2.252h-0.162c-0.486,0-0.972-0.161-1.295-0.482
		c-0.162,0.965-0.325,1.77-0.325,2.734c0,5.147,3.077,9.651,7.45,11.903c-3.887,5.309-10.041,8.687-17.167,8.687
		c-11.661,0-21.216-9.33-21.216-20.911c0-11.582,9.555-20.911,21.216-20.911c5.344,0,10.204,1.93,13.929,5.147l1.133-1.126
		c-4.049-3.539-9.231-5.63-15.062-5.63c-12.632,0-22.835,9.973-22.835,22.52c0,12.546,10.203,22.52,22.835,22.52
		c7.774,0,14.576-3.86,18.787-9.651c1.296,0.482,2.753,0.804,4.372,0.804c7.45,0,13.281-5.951,13.281-13.189
		c0-5.469-3.24-10.134-7.937-12.064l-1.296,1.287C94.802,68.3,98.041,72.482,98.041,77.469z"/>
	<path fill-rule="evenodd" clip-rule="evenodd" fill="#DED1D1" d="M76.825,71.356c-0.162-0.321-0.486-0.644-0.648-0.805l1.458-4.343
		c1.296,0.482,2.429,1.448,3.239,2.574c0.162,0.16,0.486,0.321,0.648,0.321c0.161,0,0.323,0,0.485-0.161
		c0.323-0.321,0.485-0.804,0.161-1.126c-0.971-1.286-2.267-2.412-3.725-3.056L97.556,45.78c2.267,0.322,4.21,2.252,4.534,4.504
		L82.169,70.23L76.825,71.356z M97.231,44.333c-0.324,0-0.486,0-0.648,0.161L76.339,64.762c-0.162,0.16-0.162,0.16-0.162,0.321
		l-2.429,7.399c-0.162,0.321,0,0.644,0.162,0.805c0.161,0.16,0.323,0.321,0.647,0.321h0.162l8.098-1.931
		c0.162,0,0.324-0.16,0.324-0.16l20.244-20.107c0.162-0.16,0.324-0.482,0.162-0.643v-0.161
		C103.224,47.229,100.632,44.654,97.231,44.333z"/>
</g>
</svg>
