<?xml version="1.0" encoding="utf-8"?>
<!DOCTYPE svg PUBLIC "-//W3C//DTD SVG 1.1//EN" "http://www.w3.org/Graphics/SVG/1.1/DTD/svg11.dtd">
<svg version="1.1" id="icon-01" xmlns="http://www.w3.org/2000/svg" xmlns:xlink="http://www.w3.org/1999/xlink" x="0px" y="0px"
	 width="150px" height="150px" viewBox="0 0 150 150" enable-background="new 0 0 150 150" xml:space="preserve">
<g id="icon">
	<path fill="#D0D2DF" d="M67.044,87.169c1.444,0,2.615-1.178,2.615-2.632c0-0.867-0.443-1.602-1.085-2.081l3.384-8.515
		c0.108,0.013,0.204,0.064,0.316,0.064c0.299,0,0.576-0.078,0.844-0.17l2.45,3.699c-0.41,0.466-0.679,1.063-0.679,1.735
		c0,1.455,1.169,2.633,2.615,2.633s2.615-1.178,2.615-2.633c0-0.92-0.498-1.691-1.21-2.162l3.653-11.038
		c0.059,0.005,0.109,0.036,0.17,0.036c0.482,0,0.908-0.168,1.297-0.396l4.326,4.355c-0.228,0.391-0.394,0.82-0.394,1.306
		c0,1.456,1.169,2.634,2.614,2.634s2.615-1.178,2.615-2.634c0-0.92-0.498-1.691-1.211-2.164l3.653-11.035
		c0.06,0.006,0.11,0.036,0.173,0.036c1.443,0,2.613-1.178,2.613-2.633c0-1.455-1.17-2.633-2.613-2.633
		c-1.445,0-2.615,1.178-2.615,2.633c0,0.921,0.498,1.691,1.211,2.165l-3.654,11.034c-0.059-0.005-0.109-0.035-0.172-0.035
		c-0.482,0-0.908,0.167-1.297,0.396l-4.325-4.355c0.228-0.391,0.394-0.819,0.394-1.306c0-1.456-1.17-2.633-2.615-2.633
		c-1.444,0-2.613,1.178-2.613,2.633c0,0.921,0.497,1.691,1.21,2.164l-3.655,11.033c-0.061-0.003-0.109-0.032-0.17-0.032
		c-0.299,0-0.574,0.075-0.844,0.172l-2.452-3.706c0.412-0.463,0.681-1.06,0.681-1.733c0-1.455-1.171-2.632-2.615-2.632
		s-2.615,1.177-2.615,2.632c0,0.869,0.443,1.6,1.085,2.078l-3.383,8.518c-0.109-0.013-0.205-0.063-0.317-0.063
		c-1.444,0-2.615,1.178-2.615,2.634C64.429,85.991,65.6,87.169,67.044,87.169z"/>
	<polygon fill="#D0D2DF" points="51.429,49.943 51.429,100.057 98.57,100.057 98.57,98.027 53.479,98.027 53.478,49.943 	"/>
</g>
<circle id="dot" fill="#9092C0" stroke="#9092C0" stroke-miterlimit="10" cx="57.5" cy="142.5" r="1.5"/>
<g id="semi-circle">
	<g>
		<path fill="none" stroke="#9092C0" stroke-miterlimit="10" d="M57.99,142.959c15.086,2.121,29.724-0.736,42.253-7.32
			c19.267-10.123,33.548-29.059,36.808-52.256c5.381-38.284-21.293-73.681-59.576-79.061c-38.284-5.38-64.383,23.583-65.216,29.51"
			/>
	</g>
</g>
</svg>
